<?xml version="1.0" encoding="UTF-8"?>
<svg version="1.1" xmlns="http://www.w3.org/2000/svg" width="1024" height="1024">
<path d="M0 0 C337.92 0 675.84 0 1024 0 C1024 337.92 1024 675.84 1024 1024 C686.08 1024 348.16 1024 0 1024 C0 686.08 0 348.16 0 0 Z " fill="#FEFEFE" transform="translate(0,0)"/>
<path d="M0 0 C8.60349088 5.89677465 13.13247521 13.7115368 15.8359375 23.6796875 C19.45733958 44.47892446 16.15003718 67.63030091 5.9609375 86.1796875 C3.3954856 90.99509883 2.83170421 95.30517973 3.8359375 100.6796875 C7.79285467 108.59352184 14.85449834 111.93285721 22.4609375 115.6796875 C23.40936523 116.15172607 24.35779297 116.62376465 25.33496094 117.11010742 C34.25706522 121.49841719 43.33346547 125.52624968 52.47119141 129.44335938 C66.4599773 135.5113913 78.62222153 142.10930881 85.13671875 156.56640625 C89.67557524 168.66452192 89.64412098 180.54140727 87.65625 193.15625 C87.52624603 194.00000183 87.39624207 194.84375366 87.26229858 195.71307373 C85.45111363 207.3321264 83.51620388 218.93187666 81.5462265 230.5249424 C80.94020916 234.09140679 80.33859854 237.65847795 79.74804688 241.22753906 C72.71509335 283.6906411 72.71509335 283.6906411 63.8359375 292.6796875 C63.08570313 293.48599609 63.08570313 293.48599609 62.3203125 294.30859375 C55.41247573 300.99846479 45.96066052 303.51416532 36.8359375 305.6796875 C37.13983813 317.44064197 38.46833354 328.85659324 40.37597656 340.46630859 C46.91502013 380.29336178 41.7793304 419.66626663 33.13331604 458.7098999 C31.62238466 465.57243527 30.27452994 472.46431087 28.9609375 479.3671875 C28.65651733 480.96095215 28.65651733 480.96095215 28.34594727 482.58691406 C27.98390191 484.49716117 27.62616869 486.40823358 27.27392578 488.3203125 C26.9389466 490.12479342 26.58018655 491.92487495 26.2109375 493.72265625 C25.63708622 498.24771267 25.6922898 502.74843238 25.7109375 507.3046875 C25.70707031 508.22636719 25.70320312 509.14804687 25.69921875 510.09765625 C25.70591081 514.90924612 25.88403203 519.64580121 26.328125 524.4375 C28.93881345 553.45504429 25.4132647 581.30742081 18.79296875 609.51855469 C15.37245016 624.13240657 12.28535491 638.59909423 12.4609375 653.6796875 C12.44353516 655.22076172 12.44353516 655.22076172 12.42578125 656.79296875 C12.46022512 665.82874477 13.63319573 674.48596976 20.12890625 681.21875 C31.2380792 690.7263717 49.42581175 690.53540405 63.24023438 692.140625 C78.14587112 693.98962112 78.14587112 693.98962112 82.8359375 698.6796875 C83.15478516 701.47705078 83.15478516 701.47705078 83.25 705 C83.28867187 706.25683594 83.32734375 707.51367188 83.3671875 708.80859375 C83.41359375 710.78666016 83.41359375 710.78666016 83.4609375 712.8046875 C83.49911779 714.14455668 83.53816956 715.48440133 83.578125 716.82421875 C83.6726578 720.10923369 83.75820906 723.39423888 83.8359375 726.6796875 C84.80426514 727.0919458 85.77259277 727.5042041 86.77026367 727.92895508 C97.30934374 732.41589016 97.30934374 732.41589016 99.8359375 737.6796875 C100.23466492 740.59675598 100.23466492 740.59675598 100.26831055 743.84692383 C100.29800179 745.67825615 100.29800179 745.67825615 100.32829285 747.54658508 C100.33787773 749.50932625 100.33787773 749.50932625 100.34765625 751.51171875 C100.36451262 752.87222405 100.38266416 754.23271387 100.40205383 755.59318542 C100.44945663 759.16217205 100.47932837 762.73109589 100.50549316 766.30029297 C100.53534812 769.94706622 100.58186138 773.59362333 100.62695312 777.24023438 C100.71287521 784.38659485 100.78026955 791.53302211 100.8359375 798.6796875 C101.64272949 799.010896 102.44952148 799.34210449 103.28076172 799.68334961 C104.3482666 800.12428955 105.41577148 800.56522949 106.515625 801.01953125 C107.56991699 801.45386475 108.62420898 801.88819824 109.71044922 802.33569336 C121.737639 807.50751649 121.737639 807.50751649 123.8359375 812.6796875 C124.27978358 816.50198547 124.20619582 820.33418839 124.2109375 824.1796875 C124.23542969 825.22511719 124.25992187 826.27054688 124.28515625 827.34765625 C124.28902344 828.35441406 124.29289062 829.36117187 124.296875 830.3984375 C124.30509277 831.31560547 124.31331055 832.23277344 124.32177734 833.17773438 C123.63375646 836.72086907 122.82061637 837.58475841 119.8359375 839.6796875 C116.09826492 840.29745018 112.38083391 840.21855326 108.60009766 840.18762207 C107.43977335 840.19386203 106.27944904 840.200102 105.08396339 840.20653105 C101.86247096 840.21974016 98.64157972 840.2149666 95.42010212 840.20258617 C91.94627466 840.19354865 88.47252946 840.20749892 84.99871826 840.21850586 C78.19325382 840.23630965 71.38796566 840.23244289 64.58249426 840.2208553 C59.05247899 840.21182853 53.52251319 840.21059368 47.99249268 840.21495056 C47.20598693 840.21556349 46.41948119 840.21617643 45.60914195 840.21680793 C44.01146299 840.21808681 42.41378405 840.21938366 40.81610513 840.2206983 C25.82813498 840.23210954 10.84026262 840.21898188 -4.14769149 840.19749683 C-17.01322352 840.17962534 -29.8786112 840.18272929 -42.74414062 840.20117188 C-57.6777948 840.22256901 -72.61136323 840.23101085 -87.54503059 840.21872282 C-89.13689294 840.2174486 -90.7287553 840.21619112 -92.32061768 840.21495056 C-93.10388219 840.21433346 -93.88714671 840.21371636 -94.69414651 840.21308056 C-100.21870566 840.20962417 -105.7432105 840.21546218 -111.26776123 840.22486877 C-117.998687 840.23607731 -124.72942615 840.23307301 -131.46033049 840.2117458 C-134.89581037 840.20121975 -138.33097889 840.19713956 -141.7664566 840.21034241 C-145.48735937 840.221216 -149.20737684 840.20763194 -152.92822266 840.18762207 C-154.01887213 840.19654496 -155.1095216 840.20546784 -156.23322105 840.21466112 C-163.50965258 840.1383626 -163.50965258 840.1383626 -166.83296204 837.80905914 C-169.49996221 833.54263846 -168.77569084 828.62323267 -168.7265625 823.7421875 C-168.75041016 822.65744141 -168.77425781 821.57269531 -168.79882812 820.45507812 C-168.78419777 812.52054888 -168.78419777 812.52054888 -165.859375 808.5546875 C-160.83644917 805.06047822 -155.57389068 802.81439217 -149.89453125 800.55859375 C-149.00531982 800.20482666 -148.1161084 799.85105957 -147.19995117 799.48657227 C-146.19218628 799.08716431 -146.19218628 799.08716431 -145.1640625 798.6796875 C-145.16041687 797.9413266 -145.15677124 797.2029657 -145.15301514 796.44223022 C-145.11507711 789.46840408 -145.05815854 782.49496036 -144.98015976 775.52147484 C-144.94072649 771.93666179 -144.90851812 768.35209283 -144.89306641 764.76708984 C-144.87787176 761.3043601 -144.84337842 757.84230158 -144.79575348 754.37987137 C-144.77379497 752.42249009 -144.77159117 750.46491931 -144.76971436 748.50741577 C-144.58757443 737.41576391 -144.58757443 737.41576391 -140.1640625 732.6796875 C-138.1640625 731.21875 -138.1640625 731.21875 -136.1640625 730.3046875 C-135.1740625 729.82902344 -135.1740625 729.82902344 -134.1640625 729.34375 C-132.1640625 728.6796875 -132.1640625 728.6796875 -128.1640625 728.6796875 C-128.14424316 727.91825439 -128.12442383 727.15682129 -128.10400391 726.37231445 C-128.00856328 722.91193278 -127.89896038 719.45213895 -127.7890625 715.9921875 C-127.758125 714.79400391 -127.7271875 713.59582031 -127.6953125 712.36132812 C-127.63730469 710.62592773 -127.63730469 710.62592773 -127.578125 708.85546875 C-127.5467041 707.79239502 -127.5152832 706.72932129 -127.48291016 705.6340332 C-127.13953831 702.45245382 -126.84310931 700.41721332 -125.1640625 697.6796875 C-120.22731176 694.94347457 -115.38487889 693.99568525 -109.84375 693.21484375 C-108.67297409 693.03567665 -108.67297409 693.03567665 -107.47854614 692.85289001 C-104.1771997 692.34786754 -100.87280834 691.86436587 -97.56835938 691.38012695 C-77.35490753 689.30080148 -77.35490753 689.30080148 -61.1640625 678.6796875 C-48.53240181 656.33136474 -59.18331672 624.81575842 -64.61352539 601.49560547 C-65.35982263 598.24434714 -66.07109083 594.99183308 -66.74145508 591.72439575 C-67.02050307 590.3742734 -67.30906726 589.02607875 -67.60766602 587.68014526 C-72.01147782 567.31130249 -70.29722616 545.91984622 -69.95166016 525.21948242 C-69.63820149 505.7039115 -69.58147304 487.22869636 -74.51849365 468.18045044 C-75.29850909 465.15887698 -75.97265376 462.12024618 -76.64094543 459.07243347 C-77.3282157 455.95569362 -78.06306159 452.85009817 -78.7890625 449.7421875 C-84.05086549 426.84092135 -87.54694617 404.16786261 -87.42480469 380.62744141 C-87.41406282 378.17976137 -87.42480012 375.73281476 -87.4375 373.28515625 C-87.45071019 358.77548265 -86.12075465 344.57950762 -83.5390625 330.3046875 C-81.33448963 317.92284119 -81.33448963 317.92284119 -83.1640625 305.6796875 C-85.50728833 304.78005615 -87.75831139 304.04893725 -90.1640625 303.3671875 C-101.26272809 299.93060483 -109.58701644 294.47848103 -115.1875 284.06640625 C-117.42237798 279.46305203 -118.50051142 274.87038908 -119.4765625 269.8671875 C-119.77904907 268.36949829 -119.77904907 268.36949829 -120.08764648 266.84155273 C-123.11379534 251.3925041 -125.48888566 235.81686635 -127.94735718 220.26977539 C-128.757215 215.16665505 -129.60425906 210.07312204 -130.5 204.984375 C-135.97911977 173.62185639 -135.97911977 173.62185639 -130.1640625 158.6796875 C-129.90882813 157.99003906 -129.65359375 157.30039063 -129.390625 156.58984375 C-123.48430466 142.90777139 -110.74652504 135.5038955 -97.7265625 129.8046875 C-96.76935303 129.37687988 -95.81214355 128.94907227 -94.82592773 128.50830078 C-90.31340358 126.49516475 -85.78727446 124.51372942 -81.2578125 122.5390625 C-74.00684508 119.37104458 -66.8173764 116.13279023 -59.7890625 112.4921875 C-59.17619385 112.1832959 -58.5633252 111.8744043 -57.93188477 111.55615234 C-53.18897311 109.03365478 -50.39916842 106.02638874 -47.9140625 101.3046875 C-46.27383897 95.56390515 -46.95067913 91.3536011 -49.80639648 86.13623047 C-50.17192627 85.49057129 -50.53745605 84.84491211 -50.9140625 84.1796875 C-58.20295504 70.53205812 -60.37387151 56.53587816 -60.45922852 41.15942383 C-60.47071371 39.72345092 -60.49111079 38.28751953 -60.52075195 36.85180664 C-60.75278576 25.57807459 -60.10086744 15.02095631 -52.0390625 6.3046875 C-38.79099352 -7.4227524 -16.0857041 -9.81402164 0 0 Z " fill="#090909" transform="translate(687.1640625,95.3203125)"/>
<path d="M0 0 C1.22351166 0.01078583 1.22351166 0.01078583 2.47174072 0.02178955 C3.33034698 0.0214975 4.18895325 0.02120544 5.07357788 0.02090454 C7.91977952 0.02230111 10.76572138 0.03787761 13.61187744 0.05352783 C15.58199928 0.0572568 17.55212296 0.06010432 19.52224731 0.06210327 C24.71400042 0.06974887 29.90564208 0.08940529 35.09735107 0.11151123 C40.39254244 0.13194973 45.68775177 0.14110071 50.98297119 0.15118408 C61.37755148 0.17265032 71.77204895 0.20679741 82.16656494 0.24884033 C84.21955881 3.64540639 84.41782102 6.26124951 84.42104053 10.19873142 C84.42687273 11.42403397 84.43270492 12.64933652 84.43871385 13.91176945 C84.43508057 15.27352165 84.43125619 16.63527335 84.42726135 17.99702454 C84.43028102 19.44202082 84.43416956 20.8870155 84.43885392 22.33200735 C84.4491663 26.30775638 84.4469439 30.28341557 84.44267333 34.25917208 C84.44021202 38.54482608 84.44921275 42.83045811 84.45671082 47.11610413 C84.46947567 55.51338398 84.47124935 63.91063189 84.46891055 72.30791981 C84.46712951 79.13036221 84.46887242 85.95279489 84.47313499 92.77523613 C84.47373018 93.74520444 84.47432537 94.71517274 84.4749386 95.71453403 C84.47615031 97.6848207 84.47736444 99.65510737 84.47858097 101.62539404 C84.48946304 120.11178875 84.48729065 138.59816524 84.48119613 157.08456098 C84.47602427 174.01166921 84.48728832 190.93871993 84.50629435 207.86581678 C84.52564571 225.23312394 84.53393364 242.60040386 84.5301711 259.96772188 C84.52825521 269.72361324 84.53078437 279.47945562 84.54488564 289.23533821 C84.55676591 297.53885682 84.55824206 305.84229629 84.54609547 314.14581592 C84.54018358 318.38514965 84.53917071 322.62433842 84.55109787 326.86366272 C84.56187852 330.7403895 84.55894764 334.6168489 84.54483619 338.49356275 C84.54216755 339.89994739 84.54462297 341.30635247 84.55257205 342.71271718 C84.56259139 344.61671893 84.55251717 346.52079534 84.54129505 348.42479038 C84.54137758 350.01465459 84.54137758 350.01465459 84.54146177 351.63663727 C84.16656494 354.24884033 84.16656494 354.24884033 82.86848611 356.08861345 C79.90741662 358.10722188 76.44138168 357.67265575 72.97906494 357.65289307 C71.72742554 357.66318794 71.72742554 357.66318794 70.45050049 357.6736908 C67.68901615 357.69201026 64.92809708 357.6881144 62.16656494 357.68243408 C60.24989638 357.6869931 58.33322947 357.69229784 56.41656494 357.69831848 C52.39826824 357.70725946 48.38017019 357.70481488 44.36187744 357.69488525 C39.20650872 357.68338864 34.05182422 357.70361264 28.89654541 357.73280239 C24.93833037 357.7511265 20.98028049 357.75087962 17.02203369 357.74516487 C15.12098225 357.74501122 13.21991992 357.75109143 11.31890869 357.76345634 C8.66352074 357.77829494 6.00941218 357.76774293 3.35406494 357.75054932 C2.56540039 357.76021729 1.77673584 357.76988525 0.96417236 357.77984619 C-4.36278375 357.70743038 -4.36278375 357.70743038 -6.53535622 355.59053385 C-8.17461785 352.63335727 -8.20833982 350.65719611 -8.20816517 347.28053856 C-8.21537171 346.05113592 -8.22257825 344.82173327 -8.23000318 343.555076 C-8.22282592 342.18870359 -8.215367 340.82233264 -8.20765686 339.45596313 C-8.21039656 338.0061284 -8.21444788 336.55629565 -8.21970052 335.10646784 C-8.23030916 331.1173364 -8.22214439 327.12842832 -8.21095002 323.13930655 C-8.20212364 318.83935658 -8.21054693 314.53943633 -8.21681213 310.23948669 C-8.22631083 301.81444571 -8.2196912 293.38949024 -8.20754919 284.96445559 C-8.19394509 275.16072351 -8.1955656 265.35701192 -8.19768252 255.5532728 C-8.20087389 238.06668657 -8.18919558 220.58014105 -8.1696167 203.09356689 C-8.15060608 186.11015585 -8.14353049 169.12679251 -8.14910889 152.14337158 C-8.15516071 133.66387456 -8.15500103 115.18439852 -8.14362305 96.70490324 C-8.14241572 94.73617721 -8.14120973 92.76745117 -8.14000511 90.79872513 C-8.13940157 89.8299838 -8.13879803 88.86124247 -8.13817621 87.86314534 C-8.13429018 81.02269726 -8.1346933 74.18225697 -8.13659096 67.34180832 C-8.1387086 59.01191884 -8.1335215 50.68207124 -8.11897741 42.35219358 C-8.11171231 38.09883971 -8.10767433 33.84554696 -8.11222076 29.59218788 C-8.11627609 25.70383891 -8.11119237 21.81561652 -8.09859469 17.92728682 C-8.09564969 16.51553922 -8.09612436 15.1037798 -8.10023776 13.69203512 C-8.10529753 11.78317897 -8.09700463 9.87430102 -8.08791065 7.96545982 C-8.08704387 6.90213287 -8.0861771 5.83880591 -8.08528405 4.74325693 C-7.56369378 -0.42278886 -4.45025998 0.01646301 0 0 Z " fill="#080808" transform="translate(372.83343505859375,466.75115966796875)"/>
<path d="M0 0 C0.77931381 0.00966797 1.55862762 0.01933594 2.36155701 0.02929688 C3.18622971 0.02389389 4.0109024 0.01849091 4.86056519 0.01292419 C7.58977518 0.00040466 10.31793687 0.01694889 13.04710388 0.03491211 C14.94135087 0.0347572 16.83559817 0.03326949 18.72984314 0.03050232 C22.70113627 0.02911688 26.67206887 0.04170051 30.64329529 0.06445312 C35.73805677 0.09283818 40.83221902 0.09010236 45.92702484 0.07736301 C49.83892449 0.07041358 53.75068522 0.07818669 57.66256714 0.09062004 C59.5412747 0.09514171 61.41999713 0.09546512 63.29870605 0.09155464 C65.92283279 0.08864962 68.54612888 0.10511498 71.17015076 0.12695312 C71.94946457 0.12245148 72.72877838 0.11794983 73.53170776 0.11331177 C78.81204962 0.18645926 78.81204962 0.18645926 80.96557689 1.82150447 C83.23436095 4.80432238 82.66825881 8.48401057 82.63334656 12.0852356 C82.63824982 13.41109312 82.63824982 13.41109312 82.64325213 14.76373565 C82.6505581 17.73727554 82.63635165 20.71032778 82.62229919 23.68383789 C82.6230897 25.81071049 82.62518582 27.93758295 82.62849426 30.06445312 C82.63363865 35.84935067 82.62007286 41.63407104 82.60296726 47.41894007 C82.58796284 53.46165195 82.58910607 59.50436123 82.58830261 65.54708862 C82.58460737 75.69393958 82.56962588 85.840723 82.54710388 95.98754883 C82.51821403 109.030242 82.50787981 122.0728808 82.50342178 135.11560249 C82.49944792 146.3069302 82.48694576 157.49824598 82.47307491 168.68956518 C82.46896852 172.29792726 82.46604669 175.90628892 82.46327972 179.51465225 C82.45840044 185.17314025 82.44822034 190.83159495 82.43384171 196.49006653 C82.42930422 198.57307001 82.42647664 200.65607799 82.42543411 202.73908615 C82.42369892 205.56967245 82.41584404 208.4001743 82.40629578 211.23074341 C82.40716226 212.06622904 82.40802874 212.90171467 82.40892148 213.76251805 C82.38006123 219.41679852 82.38006123 219.41679852 81.26585388 220.53100586 C79.53472837 220.83984692 77.7940313 221.09538236 76.05101013 221.32788086 C74.43162537 221.55991211 74.43162537 221.55991211 72.77952576 221.79663086 C70.51534796 222.1144102 68.24971949 222.42205321 65.98265076 222.71850586 C57.33044324 223.98592905 49.88625598 226.14671694 43.39085388 232.21850586 C39.16396896 238.80747353 37.24034404 244.51430118 36.73777771 252.30688477 C36.0644063 262.49304522 36.0644063 262.49304522 33.28538513 266.10522461 C31.01960013 267.80918364 28.73163218 269.14242764 26.26585388 270.53100586 C25.69085144 271.20736084 25.115849 271.88371582 24.52342224 272.58056641 C21.52920252 275.16744013 19.77320793 275.03350669 15.85569763 275.02709961 C14.00041443 275.02806641 14.00041443 275.02806641 12.10765076 275.02905273 C10.81923279 275.00907227 9.53081482 274.9890918 8.20335388 274.96850586 C6.26492615 274.97914063 6.26492615 274.97914063 4.28733826 274.98999023 C-5.20865959 274.9255938 -5.20865959 274.9255938 -7.38851416 273.28874058 C-9.10615326 271.04507071 -9.10997608 269.81176769 -9.11166954 267.00319767 C-9.1234044 265.60283822 -9.1234044 265.60283822 -9.13537633 264.17418867 C-9.12868417 263.14677248 -9.121992 262.11935629 -9.11509705 261.06080627 C-9.11977702 259.97075678 -9.12445699 258.88070729 -9.12927878 257.757626 C-9.14129362 254.0863423 -9.13174601 250.41542743 -9.12232971 246.74414062 C-9.12639254 244.11967754 -9.13173279 241.49521617 -9.13825989 238.87075806 C-9.15161925 232.47091606 -9.1487096 226.07117944 -9.14002196 219.67133326 C-9.13325387 214.47072416 -9.1323249 209.27014464 -9.13559341 204.06953239 C-9.13605311 203.3300723 -9.13651281 202.59061222 -9.13698644 201.82874424 C-9.1379456 200.32665276 -9.13891823 198.82456129 -9.13990422 197.32246982 C-9.14846471 183.22773994 -9.13861396 169.13306854 -9.12250312 155.03834825 C-9.1091021 142.93976145 -9.11142495 130.84126101 -9.1252594 118.74267578 C-9.14130837 104.70081867 -9.14763775 90.65901286 -9.13842261 76.61714786 C-9.13746694 75.12019695 -9.13652383 73.62324602 -9.13559341 72.12629509 C-9.13513059 71.38972546 -9.13466776 70.65315583 -9.13419091 69.89426591 C-9.13159876 64.69934533 -9.13597691 59.50445725 -9.14303207 54.3095417 C-9.15231708 47.318881 -9.14572082 40.3283864 -9.1283493 33.33774185 C-9.1243723 30.76739334 -9.12553912 28.19703113 -9.1321373 25.626688 C-9.14029483 22.12700066 -9.13010084 18.62784242 -9.11509705 15.12818909 C-9.12178921 14.10300362 -9.12848138 13.07781815 -9.13537633 12.02156645 C-9.12364147 10.61729538 -9.12364147 10.61729538 -9.11166954 9.18465519 C-9.11118248 8.37671766 -9.11069543 7.56878014 -9.11019361 6.73635966 C-8.16101466 1.16984097 -5.32984997 0.07330782 0 0 Z " fill="#080808" transform="translate(507.73414611816406,550.468994140625)"/>
<path d="M0 0 C0.8246727 -0.00511093 1.6493454 -0.01022186 2.49900818 -0.01548767 C5.227928 -0.0294003 7.95659578 -0.02842584 10.68554688 -0.02612305 C12.57979425 -0.03000869 14.47404076 -0.03434308 16.36828613 -0.03910828 C20.33946558 -0.04657381 24.31055612 -0.04627652 28.28173828 -0.04101562 C33.37645582 -0.03521658 38.47081034 -0.05216087 43.56546783 -0.0753603 C47.47733699 -0.09007421 51.38911821 -0.09097261 55.30101013 -0.08785057 C57.17973043 -0.08836483 59.05845551 -0.09362216 60.93714905 -0.10366249 C63.56120585 -0.11596611 66.18454882 -0.10927239 68.80859375 -0.09765625 C69.97756447 -0.10912186 69.97756447 -0.10912186 71.17015076 -0.12081909 C76.45122722 -0.06900992 76.45122722 -0.06900992 78.60367072 1.56368876 C80.87554434 4.55233106 80.3142183 8.24493729 80.2852478 11.85339355 C80.28992777 12.73997099 80.29460775 13.62654843 80.29942954 14.53999186 C80.31143381 17.52266122 80.30190111 20.50487573 80.29248047 23.48754883 C80.29654376 25.62103037 80.30188426 27.7545098 80.30841064 29.88798523 C80.32211892 35.69159515 80.31677109 41.49504557 80.30727339 47.29865837 C80.29969497 53.36313187 80.30671733 59.42759142 80.31143188 65.49206543 C80.31689474 75.67759664 80.30968391 85.86306266 80.29541016 96.04858398 C80.27908267 107.83598063 80.2843708 119.62322162 80.30088937 131.41061449 C80.31448913 141.5185074 80.3164313 151.62635336 80.30857337 161.73425245 C80.30388854 167.77674379 80.30329421 173.81916189 80.31318283 179.86164856 C80.32182824 185.54154077 80.315875 191.22123168 80.29850006 196.90110207 C80.29452223 198.98971535 80.29569128 201.07834548 80.30228806 203.16695213 C80.31044248 206.01017364 80.30025608 208.85274329 80.2852478 211.69592285 C80.29193997 212.52947375 80.29863213 213.36302464 80.30552709 214.22183466 C80.24788508 219.82169623 80.24788508 219.82169623 78.60646403 221.98562765 C75.69591615 224.18975028 72.20839069 223.68089941 68.70092773 223.64697266 C67.86489517 223.65062332 67.02886261 223.65427399 66.16749573 223.65803528 C63.40117141 223.66614832 60.63543142 223.65252566 57.86914062 223.63793945 C55.95007833 223.63742099 54.0310155 223.63793817 52.11195374 223.63945007 C48.08944779 223.63936032 44.06714214 223.62892347 40.04467773 223.61083984 C34.88041507 223.58813733 29.7164448 223.58761099 24.55214596 223.59435749 C20.58970018 223.59769351 16.62732146 223.59107458 12.66488838 223.58122826 C10.76023268 223.57737076 8.85556952 223.57623031 6.95091057 223.5778141 C4.29321868 223.57818361 1.63590651 223.56559749 -1.02172852 223.54931641 C-2.21011826 223.55303253 -2.21011826 223.55303253 -3.42251587 223.55682373 C-8.86696029 223.50340104 -8.86696029 223.50340104 -11.09570312 221.2746582 C-11.29580517 218.39612601 -11.36928136 215.61345697 -11.35639954 212.73352051 C-11.36022508 211.83892482 -11.36405063 210.94432914 -11.3679921 210.02262449 C-11.37836045 207.00696761 -11.37432273 203.99149977 -11.37036133 200.97583008 C-11.37470565 198.82117027 -11.37988786 196.66651202 -11.385849 194.51185608 C-11.39927952 188.6463075 -11.39981323 182.78082319 -11.3972857 176.91526222 C-11.39621885 172.02670439 -11.40109194 167.13815972 -11.40589112 162.2496047 C-11.41700008 150.72197588 -11.41741575 139.19437964 -11.41137695 127.66674805 C-11.40533311 115.75495931 -11.41765547 103.84328858 -11.43894702 91.93151999 C-11.45653009 81.72090953 -11.46256965 71.51033675 -11.45930928 61.2997117 C-11.4574912 55.1940735 -11.46018476 49.08851947 -11.47402382 42.9828949 C-11.48654427 37.24393498 -11.4847132 31.50515981 -11.47161293 25.76620293 C-11.46923502 23.65459063 -11.47202487 21.54296555 -11.48023605 19.43136787 C-11.49060295 16.55929212 -11.48268455 13.687848 -11.46992493 10.8157959 C-11.48098635 9.54840427 -11.48098635 9.54840427 -11.49227124 8.25540876 C-11.47043324 5.9353714 -11.47043324 5.9353714 -11.09570312 2.2746582 C-7.33069637 -0.2353463 -4.36034889 -0.01386143 0 0 Z " fill="#080808" transform="translate(242.095703125,600.725341796875)"/>
<path d="M0 0 C9.71760908 5.82512141 15.23862427 13.0205603 18.7890625 23.671875 C18.68867411 25.09215241 18.52655786 26.50859845 18.32421875 27.91796875 C17.17487498 37.11694818 17.17487498 37.11694818 20.08105469 45.59033203 C23.72798419 49.1913815 28.08025292 51.7463227 32.49267578 54.30517578 C36.20869681 56.51677324 39.66180836 59.07828248 43.1640625 61.609375 C44.58840764 62.61141946 46.01420459 63.61140326 47.44140625 64.609375 C54.17975998 69.34188613 60.83753638 74.18652148 67.50537109 79.01757812 C69.81397237 80.68991961 72.12354218 82.36091248 74.43359375 84.03125 C75.19712158 84.58361328 75.96064941 85.13597656 76.74731445 85.70507812 C78.26083729 86.79761363 79.77626744 87.88751229 81.29370117 88.97460938 C84.84749033 91.52327457 88.36535546 94.09973995 91.8203125 96.78125 C92.4503418 97.25989502 93.08037109 97.73854004 93.72949219 98.23168945 C94.89933602 99.12233013 96.05733181 100.02885017 97.20019531 100.95385742 C98.93186871 102.32681841 98.93186871 102.32681841 101.7890625 103.671875 C104.84055091 103.01770511 104.84055091 103.01770511 107.7890625 101.671875 C118.07186049 100.67843028 126.43172861 101.63383178 134.5390625 108.234375 C141.28547495 114.75630087 144.04418446 120.75421114 144.4140625 130.171875 C144.08593298 138.96929358 141.41213817 145.02030422 135.6015625 151.546875 C128.72658504 157.80088675 121.0199669 159.37610782 111.90234375 159.0546875 C104.39227813 158.13124154 97.70615244 154.44517463 92.7890625 148.671875 C88.80899649 142.15529023 86.63559664 136.56300736 86.7265625 128.921875 C86.73558594 127.93703125 86.74460937 126.9521875 86.75390625 125.9375 C86.77130859 124.81601562 86.77130859 124.81601562 86.7890625 123.671875 C86.08265625 123.43210937 85.37625 123.19234375 84.6484375 122.9453125 C81.31914914 121.46259665 78.88490732 119.57502539 76.0390625 117.296875 C70.99839664 113.32453589 65.85992534 109.53847156 60.6015625 105.859375 C52.37104738 100.09402037 44.21858494 94.2268974 36.08154297 88.33056641 C33.74841096 86.64246216 31.41184512 84.95921788 29.07421875 83.27734375 C28.30037842 82.71990479 27.52653809 82.16246582 26.72924805 81.58813477 C25.20213636 80.48905881 23.6736805 79.39184779 22.14379883 78.29663086 C18.77071551 75.87235553 15.43950015 73.42511077 12.203125 70.8203125 C11.66220215 70.39073242 11.1212793 69.96115234 10.56396484 69.51855469 C9.15352288 68.38857524 7.75956172 67.23810681 6.3671875 66.0859375 C2.28725043 63.84815384 -0.61371848 65.22185563 -4.88671875 66.42578125 C-5.75683594 66.69261719 -6.62695312 66.95945312 -7.5234375 67.234375 C-15.78934237 69.50191377 -21.89661471 69.14807891 -29.94921875 66.23046875 C-32.69004741 65.55354561 -33.57957443 65.6308043 -36.2109375 66.671875 C-38.31507927 68.47750276 -40.25404491 70.28882244 -42.20344543 72.24978638 C-42.79968379 72.83781693 -43.39592215 73.42584749 -44.01022834 74.03169715 C-46.01119038 76.0089383 -48.00124081 77.99680843 -49.99145508 79.98486328 C-51.42163578 81.40279681 -52.85241627 82.82012558 -54.28375244 84.2368927 C-58.17313504 88.09117684 -62.05253471 91.95535862 -65.92916322 95.82246637 C-68.3499066 98.23664044 -70.77252519 100.64891654 -73.19577599 103.06057358 C-81.64489422 111.4699428 -90.08511038 119.88814568 -98.51831055 128.31347656 C-106.38710813 136.17439694 -114.27635756 144.01437881 -122.17509919 151.8451997 C-128.95018902 158.56405097 -135.70988165 165.29813713 -142.45792884 172.04414737 C-146.49101759 176.07539181 -150.5303089 180.09992044 -154.58551979 184.10892105 C-158.39772021 187.87859776 -162.19048176 191.66678658 -165.9690094 195.47020531 C-167.36052107 196.86431143 -168.75892534 198.25157594 -170.16454124 199.63146019 C-172.07982122 201.51376104 -173.96891083 203.4189563 -175.85334778 205.33206177 C-176.41771964 205.87517726 -176.98209151 206.41829275 -177.56356555 206.97786629 C-179.31322243 208.70135675 -179.31322243 208.70135675 -181.2109375 211.671875 C-181.19110822 215.35874864 -181.19110822 215.35874864 -180.2109375 218.671875 C-179.48008269 228.52436006 -180.75119365 237.85218508 -187.2109375 245.671875 C-194.27445069 253.51681807 -202.73394255 257.47523467 -213.3359375 258.171875 C-222.96685878 256.92917548 -231.60189218 253.12940367 -237.9296875 245.63671875 C-243.11090273 238.43635346 -246.59097237 229.6581486 -245.2109375 220.671875 C-242.96682328 209.90012675 -237.62629282 203.16546771 -229.2734375 196.234375 C-222.43569253 192.74572961 -215.8653158 191.06438466 -208.2109375 191.671875 C-207.58848648 191.96839462 -206.96603546 192.26491425 -206.32472229 192.57041931 C-203.6680355 193.73067372 -202.11382 194.01299676 -199.2109375 193.671875 C-194.15307068 190.23994126 -190.124421 185.83793192 -185.92578125 181.42578125 C-184.65993798 180.13685499 -183.39154796 178.85042539 -182.1207428 177.56639099 C-178.77996579 174.17797487 -175.4730464 170.75834603 -172.17266846 167.33062744 C-168.17738004 163.19318796 -164.14357919 159.09336937 -160.11570835 154.98769283 C-156.97746414 151.78727072 -153.8449874 148.58183933 -150.72947693 145.35926819 C-149.86077972 144.46348557 -149.86077972 144.46348557 -148.97453308 143.54960632 C-147.90950427 142.45079389 -146.84675724 141.34976178 -145.78707886 140.24578857 C-143.082339 137.46023074 -140.29686128 134.84076148 -137.35855103 132.30163574 C-132.98471953 128.5194873 -128.86763312 124.51206364 -124.75952148 120.44506836 C-123.95695419 119.65389114 -123.1543869 118.86271393 -122.32749939 118.04756165 C-115.01024319 110.82704128 -107.71514905 103.58396745 -100.42765713 96.33341122 C-95.04997533 90.98340657 -89.66091513 85.64543337 -84.25635284 80.32258123 C-79.98380506 76.11245233 -75.73046447 71.88342206 -71.48347664 67.64749336 C-69.67725845 65.85170458 -67.86501651 64.06195385 -66.04675102 62.27836418 C-63.51386537 59.79136834 -61.00363837 57.28349408 -58.49780273 54.76928711 C-57.74001526 54.03509552 -56.98222778 53.30090393 -56.20147705 52.54446411 C-54.34037587 50.65293817 -52.66302781 48.8926167 -51.2109375 46.671875 C-51.06215064 43.43065603 -51.06215064 43.43065603 -52.2109375 40.671875 C-52.81123829 31.26388231 -52.89220045 23.14040971 -48.2109375 14.671875 C-47.6334375 13.62 -47.0559375 12.568125 -46.4609375 11.484375 C-34.95272905 -2.90088556 -17.06217667 -8.18616562 0 0 Z " fill="#0A0909" transform="translate(425.2109375,296.328125)"/>
<path d="M0 0 C1.45212498 -0.00218045 2.90424805 -0.00655848 4.35636061 -0.01294583 C8.34726805 -0.02413434 12.33750548 -0.00411551 16.32832754 0.02094448 C20.63161985 0.04251884 24.93487379 0.03523119 29.23820496 0.03143311 C36.69417092 0.0288102 44.14991827 0.04450952 51.60582924 0.0726223 C62.38581232 0.11324217 73.16568959 0.12627797 83.9457409 0.13256226 C101.43521595 0.14350782 118.92457445 0.17678912 136.41398621 0.22407532 C153.40421465 0.26996413 170.39441144 0.30535936 187.38468933 0.32661438 C188.43181116 0.327928 189.47893299 0.32924161 190.55778579 0.33059504 C195.81084143 0.33712018 201.06389729 0.34343873 206.3169533 0.34965456 C249.90252038 0.40149571 293.48795737 0.48993958 337.07341003 0.60127258 C337.07341003 8.52127258 337.07341003 16.44127258 337.07341003 24.60127258 C292.57059915 24.66967372 248.06779519 24.72278267 203.56494208 24.75446857 C198.31393978 24.7582208 193.06293757 24.76210376 187.81193542 24.7660675 C186.76653181 24.76685444 185.72112819 24.76764137 184.64404567 24.76845215 C167.705108 24.78151492 150.7662008 24.80517355 133.82728121 24.83273097 C116.45331832 24.86076094 99.0793714 24.87744374 81.70538682 24.88353807 C70.98008303 24.88765951 60.25486535 24.90068837 49.52958807 24.92502198 C42.18021242 24.94084945 34.83088145 24.94567974 27.48148999 24.94177672 C23.23787808 24.9398505 18.99441689 24.94285473 14.7508316 24.95888901 C10.86768555 24.9734546 6.98479204 24.97424684 3.10163452 24.96396927 C1.6950895 24.96269845 0.28852892 24.96653239 -1.11798533 24.97592213 C-3.02704372 24.98792818 -4.93619751 24.9796934 -6.84527111 24.97041607 C-7.90658943 24.97155523 -8.96790776 24.97269439 -10.06138724 24.97386807 C-13.36763128 24.54391887 -15.25352407 23.56334464 -17.92658997 21.60127258 C-19.38683366 18.68078519 -19.2130555 16.04071175 -19.30158997 12.78877258 C-19.35057434 11.56545227 -19.39955872 10.34213196 -19.45002747 9.08174133 C-18.93789465 5.6764403 -18.40248166 3.97559386 -15.87260306 1.63225329 C-11.13614057 -0.87708309 -5.23050522 -0.0580295 0 0 Z " fill="#090909" transform="translate(189.9265899658203,845.3987274169922)"/>
<path d="M0 0 C7.76272756 5.2983696 13.26540984 11.94167011 16 21 C17.36347573 31.22606801 16.22241339 39.93879368 10.3046875 48.43359375 C4.67656303 55.37190915 -2.13688613 59.58766641 -11 61 C-17.18618749 61.23793029 -17.18618749 61.23793029 -20.09765625 60.38671875 C-22.7081177 59.70993245 -24.33778128 59.47016202 -27 60 C-30.90448582 63.21686581 -33.89164513 67.04154137 -37 71 C-38.1151471 72.30018257 -39.23906596 73.59293852 -40.375 74.875 C-40.91898438 75.50148438 -41.46296875 76.12796875 -42.0234375 76.7734375 C-45.15930208 80.30593318 -48.38324795 83.75654092 -51.5949707 87.2199707 C-54.84850273 90.73464215 -58.0340121 94.29599939 -61.16796875 97.91796875 C-63.99864261 101.13491793 -66.90767016 104.2797068 -69.80834961 107.43334961 C-74.24236939 112.25603882 -78.62525909 117.12349669 -83 122 C-84.49971128 123.66692647 -85.99971321 125.33359149 -87.5 127 C-88.2425 127.825 -88.985 128.65 -89.75 129.5 C-96.5 137 -103.25 144.5 -110 152 C-112.44479152 147.11041696 -109.95609591 138.58182346 -109.32373047 133.19873047 C-109.10930643 131.32842245 -108.90763041 129.45660532 -108.71923828 127.58349609 C-106.83112988 108.83182547 -106.83112988 108.83182547 -100.78808594 103.43115234 C-100.19801758 102.95887207 -99.60794922 102.4865918 -99 102 C-98.05791153 100.99804108 -97.13213335 99.98039404 -96.2265625 98.9453125 C-95.36804688 98.01460938 -94.50953125 97.08390625 -93.625 96.125 C-88.71080652 90.78480833 -83.84619233 85.40202801 -79 80 C-77.50028872 78.33307353 -76.00028679 76.66640851 -74.5 75 C-73.76007812 74.17757812 -73.02015625 73.35515625 -72.2578125 72.5078125 C-70.73291756 70.81407106 -69.20684598 69.12138831 -67.6796875 67.4296875 C-63.67216488 62.98745056 -59.670338 58.54335329 -55.77734375 54 C-54.48148025 52.54179755 -53.13213045 51.13062111 -51.75390625 49.75 C-51.01011719 48.986875 -50.26632812 48.22375 -49.5 47.4375 C-48.8090625 46.75558594 -48.118125 46.07367188 -47.40625 45.37109375 C-45.38064547 41.95569945 -46.22807708 39.83132423 -47 36 C-47.88156888 25.253787 -47.50152265 17.06063262 -41 8 C-30.18081334 -4.26619723 -14.60469104 -7.68777603 0 0 Z " fill="#0A0A0A" transform="translate(898,165)"/>
<path d="M0 0 C5.25444201 3.03140885 7.29191627 6.65486555 9.3125 12.3125 C11.10944482 19.33692068 10.09146106 25.14837357 8 32 C7.0867395 31.9685791 7.0867395 31.9685791 6.1550293 31.93652344 C-9.95590025 31.09982066 -9.95590025 31.09982066 -25 36 C-25.928125 36.50917969 -26.85625 37.01835937 -27.8125 37.54296875 C-33.2865208 40.7931686 -37.75810425 44.43346094 -42.125 49.046875 C-43.90406988 50.90007279 -45.73914001 52.57765768 -47.6875 54.25 C-52.07666589 58.01838745 -56.30003961 61.9577194 -60.52026367 65.91308594 C-62.93320669 68.16028193 -65.24977364 70.16651576 -68 72 C-71.39044576 71.81836898 -74.01253434 71.60522089 -76.9375 69.8125 C-78.64037181 66.90760104 -78.56651106 65.33612067 -78 62 C-76.32670084 59.0527117 -74.20620875 56.56323008 -72 54 C-71.35804688 53.236875 -70.71609375 52.47375 -70.0546875 51.6875 C-58.07940677 37.90046093 -44.58068766 26.25439029 -28.01269531 18.4074707 C-22.73747284 15.79752672 -19.54369055 12.65933519 -16 8 C-14.375 6.0625 -14.375 6.0625 -12.75 4.125 C-12.27046875 3.55007813 -11.7909375 2.97515625 -11.296875 2.3828125 C-8.24266173 -0.8737884 -4.15466924 -0.65110488 0 0 Z " fill="#FBFBFB" transform="translate(669,285)"/>
<path d="M0 0 C1.30957672 -0.00708481 2.61915344 -0.01416962 3.96841431 -0.02146912 C5.42825352 -0.01917506 6.8880924 -0.01666533 8.34793091 -0.01396179 C9.87866465 -0.01830692 11.40939621 -0.0234894 12.94012451 -0.02944946 C17.10545545 -0.04287355 21.27069585 -0.04341427 25.43604422 -0.04088616 C28.9102639 -0.03981856 32.38446511 -0.04469451 35.85868084 -0.04949158 C44.05433026 -0.06059898 52.24993385 -0.06101754 60.44558716 -0.05497742 C68.90596073 -0.04893811 77.36616798 -0.06124468 85.82651317 -0.08254749 C93.08431621 -0.10015172 100.34206626 -0.10616663 107.59988987 -0.10290974 C111.93720271 -0.10109455 116.27439697 -0.10375635 120.61169052 -0.11762428 C124.69107322 -0.13017859 128.77019643 -0.12828141 132.84957504 -0.11521339 C134.34757575 -0.11284265 135.84559458 -0.11560009 137.34357452 -0.12383652 C139.38706634 -0.13426276 141.43063174 -0.12442373 143.47412109 -0.11352539 C145.19029035 -0.113777 145.19029035 -0.113777 146.94112968 -0.1140337 C150.19025614 0.30251818 151.58857047 0.92925208 153.86404419 3.26069641 C154.30154419 6.32319641 154.30154419 6.32319641 153.86404419 9.26069641 C150.87949288 11.25039729 150.1913207 11.52541699 146.83537292 11.6676178 C146.01151565 11.7053191 145.18765837 11.7430204 144.33883572 11.78186417 C142.9785832 11.82697695 142.9785832 11.82697695 141.59085083 11.8730011 C140.62395104 11.91045818 139.65705126 11.94791527 138.66085148 11.98650742 C125.89380941 12.43204328 113.1186994 12.44395782 100.34532428 12.46088505 C98.20874524 12.46385814 96.07217106 12.46796884 93.93559456 12.47238922 C87.22248286 12.48595013 80.50938279 12.49568304 73.79625839 12.49959111 C66.09225391 12.50410501 58.38842391 12.52185271 50.6844725 12.55059171 C44.68399684 12.57219172 38.68357054 12.58229377 32.68305641 12.58363223 C29.11560977 12.58467743 25.5483298 12.59052973 21.98092461 12.60845184 C18.02320476 12.62796644 14.06570756 12.62365052 10.10794067 12.61714172 C8.93553329 12.62635651 7.76312592 12.63557129 6.55519104 12.64506531 C5.47785706 12.63949615 4.40052307 12.633927 3.2905426 12.62818909 C2.35768653 12.62965565 1.42483046 12.63112221 0.46370602 12.63263321 C-2.72236282 12.17679844 -4.58776063 11.21215324 -7.13595581 9.26069641 C-8.07345581 5.69819641 -8.07345581 5.69819641 -8.13595581 2.26069641 C-5.38857061 -0.48668879 -3.84872288 0.00691028 0 0 Z " fill="#FCFCFC" transform="translate(583.1359558105469,829.7393035888672)"/>
<path d="M0 0 C0.88304306 0.05084747 1.76608612 0.10169495 2.67588806 0.15408325 C12.29309458 0.7711801 21.82707028 1.97902391 31.37231445 3.27880859 C34.31683793 3.67974628 37.26268177 4.06940488 40.20898438 4.45703125 C44.97313838 5.08817455 49.73351188 5.74294715 54.49200439 6.41540527 C56.34057629 6.67595623 58.18966775 6.93284592 60.03924561 7.18615723 C62.67392724 7.54929017 65.30579254 7.92847539 67.9375 8.3125 C69.1139785 8.47128128 69.1139785 8.47128128 70.31422424 8.63327026 C74.38064409 9.24726645 77.23150426 9.93233383 80.25390625 12.8046875 C80.19140625 15.1171875 80.19140625 15.1171875 79.25390625 17.8046875 C73.03545503 21.48001862 67.01613953 21.22884329 59.94140625 21.1171875 C58.75587158 21.10518311 57.57033691 21.09317871 56.34887695 21.08081055 C0.28497299 20.20881257 0.28497299 20.20881257 -11.74609375 8.9296875 C-12.74609375 6.8046875 -12.74609375 6.8046875 -12.62109375 4.1796875 C-10.4747347 -1.6461442 -5.13073999 -0.32688729 0 0 Z " fill="#FBFBFB" transform="translate(642.74609375,366.1953125)"/>
<path d="M0 0 C1.09828769 3.54188278 1.11445011 6.8209762 1.09765625 10.515625 C1.09443359 11.76601563 1.09121094 13.01640625 1.08789062 14.3046875 C1.07951172 15.60664063 1.07113281 16.90859375 1.0625 18.25 C1.05798828 19.56742187 1.05347656 20.88484375 1.04882812 22.2421875 C1.03704316 25.49483741 1.02059011 28.74739584 1 32 C-3.34255496 27.65744504 -2.18258755 18.64493703 -2.1875 12.75 C-2.19974609 11.96109375 -2.21199219 11.1721875 -2.22460938 10.359375 C-2.2425032 3.29727744 -2.2425032 3.29727744 0 0 Z " fill="#131313" transform="translate(556,261)"/>
<path d="M0 0 C0.66 0.33 1.32 0.66 2 1 C1.60731934 1.38744385 1.21463867 1.7748877 0.81005859 2.17407227 C-1.00438201 3.96745192 -2.81469627 5.76494489 -4.625 7.5625 C-5.55119141 8.47612305 -5.55119141 8.47612305 -6.49609375 9.40820312 C-10.55193972 13.44270254 -14.32905525 17.61180912 -18 22 C-18.66 21.34 -19.32 20.68 -20 20 C-13.4 13.4 -6.8 6.8 0 0 Z " fill="#1F1F1F" transform="translate(282,434)"/>
<path d="M0 0 C-3.37097383 1.49821059 -5.20442119 2 -9 2 C-9 2.66 -9 3.32 -9 4 C-10.45505358 4.52992692 -11.91418127 5.0486789 -13.375 5.5625 C-14.59316406 5.99755859 -14.59316406 5.99755859 -15.8359375 6.44140625 C-18 7 -18 7 -20 6 C-18.08588443 5.01585567 -16.1686033 4.03786651 -14.25 3.0625 C-13.18265625 2.51722656 -12.1153125 1.97195313 -11.015625 1.41015625 C-6.85839876 -0.53383167 -4.41460812 -1.41898118 0 0 Z M-22 7 C-21.34 7.33 -20.68 7.66 -20 8 C-21.98 8.99 -21.98 8.99 -24 10 C-23.34 9.01 -22.68 8.02 -22 7 Z M-26 10 C-25.34 10.33 -24.68 10.66 -24 11 C-24.99 11 -25.98 11 -27 11 C-26.67 10.67 -26.34 10.34 -26 10 Z " fill="#161616" transform="translate(659,317)"/>
<path d="M0 0 C5.71196362 0.55277067 11.22797673 1.37814732 16.8359375 2.59765625 C19.12471836 3.09139412 19.12471836 3.09139412 22 3 C22 3.99 22 4.98 22 6 C14.74 5.01 7.48 4.02 0 3 C0 2.01 0 1.02 0 0 Z " fill="#0B0B0A" transform="translate(693,370)"/>
<path d="M0 0 C0.89203125 0.00902344 1.7840625 0.01804688 2.703125 0.02734375 C3.37859375 0.03894531 4.0540625 0.05054688 4.75 0.0625 C4.75 1.0525 4.75 2.0425 4.75 3.0625 C0.13 3.3925 -4.49 3.7225 -9.25 4.0625 C-9.25 3.0725 -9.25 2.0825 -9.25 1.0625 C-6.09493858 0.12630187 -3.28413498 -0.0432123 0 0 Z " fill="#232323" transform="translate(882.25,160.9375)"/>
<path d="M0 0 C0.83917969 -0.02578125 1.67835938 -0.0515625 2.54296875 -0.078125 C4.8125 0.25 4.8125 0.25 7.8125 3.25 C1.5425 2.92 -4.7275 2.59 -11.1875 2.25 C-11.1875 1.92 -11.1875 1.59 -11.1875 1.25 C-7.4564664 0.46451924 -3.80305827 0.11136335 0 0 Z " fill="#1C1C1C" transform="translate(653.1875,364.75)"/>
<path d="M0 0 C0.33 0 0.66 0 1 0 C1.25706972 5.91260345 0.2982126 11.23918159 -1 17 C-1.66 17 -2.32 17 -3 17 C-2.67 12.38 -2.34 7.76 -2 3 C-1.34 3 -0.68 3 0 3 C0 2.01 0 1.02 0 0 Z " fill="#171716" transform="translate(793,281)"/>
<path d="M0 0 C0 3 0 3 -1.5 4.6875 C-1.995 5.120625 -2.49 5.55375 -3 6 C-3.66 5.67 -4.32 5.34 -5 5 C-3.35 3.35 -1.7 1.7 0 0 Z M-5 6 C-6.49097658 9.7952131 -8.75700849 11.61042731 -12 14 C-12 11 -12 11 -9.625 8.3125 C-7 6 -7 6 -5 6 Z " fill="#101011" transform="translate(630,330)"/>
<path d="M0 0 C-0.33 0.66 -0.66 1.32 -1 2 C-3.02488628 2.28926947 -5.05244016 2.57272154 -7.08984375 2.75390625 C-9.08252033 2.90406878 -9.08252033 2.90406878 -11 4 C-11 3.01 -11 2.02 -11 1 C-3.57142857 -1.42857143 -3.57142857 -1.42857143 0 0 Z " fill="#141414" transform="translate(661,91)"/>
<path d="M0 0 C0.66 0.33 1.32 0.66 2 1 C1.67 5.29 1.34 9.58 1 14 C-1.48301252 9.03397496 -1.62544342 5.28269111 0 0 Z " fill="#161616" transform="translate(767,316)"/>
<path d="M0 0 C0 3 0 3 0 3 Z M-6 7 C-5.67 7.99 -5.34 8.98 -5 10 C-5.99 10.99 -6.98 11.98 -8 13 C-8.99 12.67 -9.98 12.34 -11 12 C-9.35 10.35 -7.7 8.7 -6 7 Z " fill="#161616" transform="translate(813,251)"/>
<path d="M0 0 C0.33 0.99 0.66 1.98 1 3 C-1.97 5.475 -1.97 5.475 -5 8 C-5 5 -5 5 -2.5 2.3125 C-1.675 1.549375 -0.85 0.78625 0 0 Z " fill="#111111" transform="translate(827,236)"/>
<path d="M0 0 C0.66 0.33 1.32 0.66 2 1 C1.67 3.64 1.34 6.28 1 9 C0.01 9 -0.98 9 -2 9 C-1.125 1.125 -1.125 1.125 0 0 Z " fill="#151616" transform="translate(562,793)"/>
<path d="M0 0 C-0.33 0.66 -0.66 1.32 -1 2 C-2.65 1.67 -4.3 1.34 -6 1 C-6 1.66 -6 2.32 -6 3 C-7.32 2.67 -8.64 2.34 -10 2 C-9.67 1.34 -9.34 0.68 -9 0 C-5.44307323 -0.85056945 -3.50729422 -1.16909807 0 0 Z " fill="#0F0E0F" transform="translate(578,790)"/>
<path d="M0 0 C3.3 0 6.6 0 10 0 C10 0.99 10 1.98 10 3 C6.7 2.67 3.4 2.34 0 2 C0 1.34 0 0.68 0 0 Z " fill="#1D1D1C" transform="translate(705,373)"/>
<path d="M0 0 C1.23556641 0.01740234 1.23556641 0.01740234 2.49609375 0.03515625 C3.32238281 0.04417969 4.14867187 0.05320313 5 0.0625 C5.63808594 0.07410156 6.27617188 0.08570313 6.93359375 0.09765625 C6.60359375 1.08765625 6.27359375 2.07765625 5.93359375 3.09765625 C2.55859375 3.22265625 2.55859375 3.22265625 -1.06640625 3.09765625 C-1.72640625 2.43765625 -2.38640625 1.77765625 -3.06640625 1.09765625 C-2.06640625 0.09765625 -2.06640625 0.09765625 0 0 Z " fill="#111211" transform="translate(881.06640625,222.90234375)"/>
<path d="M0 0 C0.33 0 0.66 0 1 0 C1.36923077 7.50769231 1.36923077 7.50769231 -0.5 10 C-0.995 10.33 -1.49 10.66 -2 11 C-2.28571429 3.57142857 -2.28571429 3.57142857 0 0 Z " fill="#101010" transform="translate(728,499)"/>
<path d="M0 0 C1.04005702 3.38018531 1.08004482 6.4780279 1 10 C0.01 9.67 -0.98 9.34 -2 9 C-1.125 1.125 -1.125 1.125 0 0 Z " fill="#171717" transform="translate(629,113)"/>
<path d="M0 0 C0.33 0 0.66 0 1 0 C1.3125 2.8125 1.3125 2.8125 1 6 C-1.5 7.875 -1.5 7.875 -4 9 C-3.71125 8.443125 -3.4225 7.88625 -3.125 7.3125 C-1.9586747 4.91505355 -0.9660119 2.48403061 0 0 Z " fill="#111010" transform="translate(542,808)"/>
<path d="M0 0 C2.97 0.99 5.94 1.98 9 3 C6 5 6 5 4 5 C4 4.34 4 3.68 4 3 C2.68 2.67 1.36 2.34 0 2 C0 1.34 0 0.68 0 0 Z " fill="#1A1A1A" transform="translate(769,822)"/>
<path d="M0 0 C0.99 0.33 1.98 0.66 3 1 C3.33 2.98 3.66 4.96 4 7 C3.01 7 2.02 7 1 7 C0.67 4.69 0.34 2.38 0 0 Z " fill="#101010" transform="translate(611,554)"/>
<path d="M0 0 C5.53846154 -0.36923077 5.53846154 -0.36923077 7.875 1.5 C8.24625 1.995 8.6175 2.49 9 3 C6.36 3 3.72 3 1 3 C0.67 2.01 0.34 1.02 0 0 Z " fill="#131413" transform="translate(667,385)"/>
<path d="M0 0 C0.66 0 1.32 0 2 0 C2.66 2.31 3.32 4.62 4 7 C3.01 7 2.02 7 1 7 C0.67 4.69 0.34 2.38 0 0 Z " fill="#161716" transform="translate(373,333)"/>
<path d="M0 0 C0.99 0 1.98 0 3 0 C3.33 2.64 3.66 5.28 4 8 C1.10067643 5.60490662 0.49831724 3.68754757 0 0 Z " fill="#131313" transform="translate(771,256)"/>
</svg>
